<?xml version="1.0" encoding="utf-8"?>
<!-- Generator: Adobe Illustrator 22.1.0, SVG Export Plug-In . SVG Version: 6.00 Build 0)  -->
<svg version="1.1" id="圖層_1" xmlns="http://www.w3.org/2000/svg" xmlns:xlink="http://www.w3.org/1999/xlink" x="0px" y="0px"
	 viewBox="0 0 21.4 19.8" style="enable-background:new 0 0 21.4 19.8;" xml:space="preserve">
<style type="text/css">
	.st0{opacity:0.1;fill:#FFFFFF;}
	.st1{opacity:0.2;fill:#FFFFFF;}
</style>
<path class="st0" d="M2.8,0.3C1.6-0.5,0,0.4,0,1.9v11.5l10.9-7.7L2.8,0.3z"/>
<path d="M1.8,19.8h8.7c0.1,0,0.1,0,0.2,0L1.8,19.8C1.8,19.8,1.8,19.8,1.8,19.8z"/>
<path class="st1" d="M18.5,0.3l-7.6,5.4L0,13.4V18c0,1,0.8,1.8,1.8,1.8l9,0l8.8,0c1,0,1.8-0.8,1.8-1.8V1.8
	C21.4,0.4,19.8-0.5,18.5,0.3z"/>
</svg>
